<mxfile host="app.diagrams.net" modified="2023-09-18T16:34:22.760Z" agent="Mozilla/5.0 (Windows NT 10.0; Win64; x64) AppleWebKit/537.36 (KHTML, like Gecko) Chrome/116.0.0.0 Safari/537.36" version="21.7.5" etag="xhmJHMhfzXE5pZNAH-6U" type="github">
  <diagram name="Страница — 1" id="dYsE1Ft5zfMlP_yFSNyN">
    <mxGraphModel>
      <root>
        <mxCell id="0" />
        <mxCell id="1" parent="0" />
      </root>
    </mxGraphModel>
  </diagram>
</mxfile>
